<svg viewBox="0 0 690 616" xmlns="http://www.w3.org/2000/svg" fill-rule="evenodd" clip-rule="evenodd"><path d="M332.323 14.84c-17.34-11.468-39.583-13.023-58.351-4.08L54.466 115.359c-18.768 8.943-31.208 27.025-32.635 47.436L5.137 401.524c-1.427 20.411 8.375 40.05 25.716 51.517l202.812 134.131c17.34 11.467 39.584 13.023 58.351 4.08l219.506-104.599c18.768-8.943 31.208-27.026 32.635-47.437l16.694-238.729c1.427-20.411-8.375-40.049-25.715-51.517L332.323 14.84z" fill="#f7f8f9"/><path d="M180.34 459.737a15.615 15.615 0 0 0-15.226-1.065l-57.269 27.137c-4.896 2.32-8.141 7.014-8.511 12.313l-4.335 61.98c-.37 5.299 2.19 10.399 6.715 13.378l52.935 34.843a15.617 15.617 0 0 0 15.227 1.065l57.268-27.137c4.897-2.32 8.141-7.014 8.512-12.313l4.334-61.98c.371-5.299-2.189-10.399-6.715-13.378l-52.935-34.843z" fill="#ff87e5" fill-opacity=".5"/><path d="M473.18 46.676c-15.596-10.323-35.602-11.722-52.483-3.67l-197.439 94.178c-16.881 8.052-28.072 24.331-29.356 42.706l-15.029 214.918c-1.285 18.375 7.531 36.053 23.127 46.376l182.411 120.74c15.595 10.323 35.602 11.722 52.482 3.67l197.44-94.178c16.881-8.052 28.071-24.332 29.356-42.707l15.029-214.917c1.284-18.375-7.531-36.054-23.127-46.377L473.18 46.676z" fill="none" stroke="#ff87e5" stroke-opacity=".5" stroke-width="11.18"/></svg>